<svg width="32" height="33" viewBox="0 0 32 33" fill="none" xmlns="http://www.w3.org/2000/svg">
<path d="M26.3049 0H6.34592C5.41542 0 4.65842 0.780656 4.65842 1.74023V4.17792H3.65436C3.13661 4.17792 2.71686 4.61078 2.71686 5.14471C2.71686 5.67864 3.13661 6.11151 3.65436 6.11151H4.65842V9.85553H3.65436C3.13661 9.85553 2.71686 10.2884 2.71686 10.8223C2.71686 11.3563 3.13661 11.7891 3.65436 11.7891H4.65842V15.5332H3.65436C3.13661 15.5332 2.71686 15.9661 2.71686 16.5C2.71686 17.0339 3.13661 17.4668 3.65436 17.4668H4.65842V21.2109H3.65436C3.13661 21.2109 2.71686 21.6437 2.71686 22.1777C2.71686 22.7116 3.13661 23.1445 3.65436 23.1445H4.65842V26.8885H3.65436C3.13661 26.8885 2.71686 27.3214 2.71686 27.8553C2.71686 28.3892 3.13661 28.8221 3.65436 28.8221H4.65842V31.2598C4.65842 32.2193 5.41542 33 6.34592 33H26.3049C27.947 33 29.283 31.6223 29.283 29.9288V3.07119C29.283 1.37769 27.947 0 26.3049 0V0ZM27.408 29.9288C27.408 30.5561 26.9132 31.0664 26.3049 31.0664H6.53342V28.8221H7.53748C8.05523 28.8221 8.47498 28.3892 8.47498 27.8553C8.47498 27.3214 8.05523 26.8885 7.53748 26.8885H6.53342V23.1445H7.53748C8.05523 23.1445 8.47498 22.7116 8.47498 22.1777C8.47498 21.6437 8.05523 21.2109 7.53748 21.2109H6.53342V17.4668H7.53748C8.05523 17.4668 8.47498 17.0339 8.47498 16.5C8.47498 15.9661 8.05523 15.5332 7.53748 15.5332H6.53342V11.7891H7.53748C8.05523 11.7891 8.47498 11.3563 8.47498 10.8223C8.47498 10.2884 8.05523 9.85553 7.53748 9.85553H6.53342V6.11151H7.53748C8.05523 6.11151 8.47498 5.67864 8.47498 5.14471C8.47498 4.61078 8.05523 4.17792 7.53748 4.17792H6.53342V1.93359H26.3049C26.9131 1.93359 27.408 2.44387 27.408 3.07119V29.9288Z" fill="#9A9A9A"/>
<path d="M23.6601 26.8885H19.1879C18.6702 26.8885 18.2504 27.3214 18.2504 27.8553C18.2504 28.3893 18.6702 28.8221 19.1879 28.8221H23.6601C24.1778 28.8221 24.5976 28.3893 24.5976 27.8553C24.5976 27.3214 24.1778 26.8885 23.6601 26.8885Z" fill="#9A9A9A"/>
<path d="M23.66 4.17789H12.2003C11.6825 4.17789 11.2628 4.61075 11.2628 5.14468V10.3907C11.2628 10.9246 11.6825 11.3574 12.2003 11.3574H23.66C24.1778 11.3574 24.5975 10.9246 24.5975 10.3907V5.14468C24.5975 4.61075 24.1778 4.17789 23.66 4.17789ZM22.7225 9.42386H13.1378V6.11148H22.7225V9.42386Z" fill="#9A9A9A"/>
</svg>
