<svg width="43" height="33" viewBox="0 0 43 33" fill="none" xmlns="http://www.w3.org/2000/svg">
<g clip-path="url(#clip0_2_399)">
<path d="M41.2762 8.67984C39.7667 7.17035 37.2575 7.16525 35.7429 8.67984C35.3843 9.03845 35.0289 9.39378 34.6748 9.7477V4.84752C34.6748 3.24831 33.3821 1.94726 31.7931 1.94726H30.7433V0.966732C30.7433 0.432867 30.3105 0 29.7766 0C29.2426 0 28.8098 0.432867 28.8098 0.966732V1.94719H26.8763V0.966732C26.8763 0.432867 26.4434 0 25.9095 0C25.3756 0 24.9428 0.432867 24.9428 0.966732V1.94719H23.0092V0.966732C23.0092 0.432867 22.5764 0 22.0425 0C21.5086 0 21.0758 0.432867 21.0758 0.966732V1.94719H19.1423V0.966732C19.1422 0.432867 18.7094 0 18.1755 0C17.6415 0 17.2087 0.432867 17.2087 0.966732V1.94719H15.2752V0.966732C15.2752 0.432867 14.8423 0 14.3084 0C13.7745 0 13.3417 0.432867 13.3417 0.966732V1.94719H12.3748C10.74 1.94719 9.41016 3.24412 9.41016 4.83824V30.1061C9.41016 31.7091 10.7693 32.9989 12.3736 32.9999L31.7924 32.9986C31.7931 32.9986 31.7937 32.9986 31.7943 32.9986C33.3961 32.9986 34.6748 31.7223 34.6748 30.1198V20.7108C36.9104 18.4953 39.0807 16.3442 41.2762 14.1486C42.7876 12.6373 42.7877 10.1913 41.2762 8.67984ZM32.7413 30.1199C32.7413 30.652 32.3292 31.0717 31.7936 31.0717C31.7934 31.0717 31.7932 31.0717 31.793 31.0717L12.3744 31.073C11.8253 31.0727 11.3438 30.6208 11.3438 30.1062L11.3436 4.8383C11.3436 4.32816 11.8255 3.8679 12.3748 3.8679H13.3416V4.83379C13.3416 5.36772 13.7745 5.80052 14.3083 5.80052C14.8422 5.80052 15.2751 5.36766 15.2751 4.83379V3.8679H17.2086V4.83379C17.2086 5.36772 17.6415 5.80052 18.1753 5.80052C18.7093 5.80052 19.1421 5.36766 19.1421 4.83379V3.8679H21.0756V4.83379C21.0756 5.36772 21.5085 5.80052 22.0423 5.80052C22.5762 5.80052 23.0091 5.36766 23.0091 4.83379V3.8679H24.9426V4.83379C24.9426 5.36772 25.3755 5.80052 25.9093 5.80052C26.4432 5.80052 26.8761 5.36766 26.8761 4.83379V3.8679H28.8096V4.83379C28.8096 5.36772 29.2424 5.80052 29.7763 5.80052C30.3102 5.80052 30.743 5.36766 30.743 4.83379V3.8679H31.7927C32.3245 3.8679 32.741 4.30547 32.741 4.84752V11.6799C30.7722 13.6468 28.8544 15.5614 26.941 17.4725H14.3084C13.7745 17.4725 13.3417 17.9053 13.3417 18.4392C13.3417 18.9731 13.7745 19.3995 14.3084 19.3995H25.0059C23.8551 20.5495 23.1596 21.2515 23.0716 21.3395H14.3084C13.7745 21.3395 13.3417 21.7723 13.3417 22.3062C13.3417 22.8401 13.7745 23.2729 14.3084 23.2729H22.2022L21.5576 25.2065H14.3084C13.7745 25.2065 13.3417 25.6393 13.3417 26.1732C13.3417 26.7071 13.7745 27.1401 14.3084 27.1401H20.9132L20.6113 28.0457C20.3587 28.8036 21.0838 29.5188 21.8341 29.2686L27.9865 27.2178C28.1289 27.1703 28.2583 27.0904 28.3644 26.9842C29.8427 25.5059 31.305 24.0524 32.7412 22.6277V30.1199H32.7413ZM26.2537 25.7574L23.057 26.8229L24.1225 23.6263L26.2537 25.7574ZM27.9231 24.6924L25.1882 21.9576C28.2244 18.9224 31.1419 16.0109 34.1894 12.9663L36.9733 15.7072C35.6956 16.9771 29.6 23.0194 27.9231 24.6924ZM39.9091 12.7814C39.385 13.3054 38.8634 13.826 38.3441 14.3433L35.5572 11.5996C36.0705 11.0865 36.5875 10.5697 37.1102 10.047C37.8669 9.29027 39.1533 9.29124 39.9091 10.047C40.6628 10.8009 40.6628 12.0276 39.9091 12.7814Z" fill="#9A9A9A"/>
<path d="M25.4047 13.6055H14.3075C13.7736 13.6055 13.3408 14.0384 13.3408 14.5722C13.3408 15.1062 13.7736 15.539 14.3075 15.539H25.4046C25.9386 15.539 26.3714 15.1061 26.3714 14.5722C26.3714 14.0383 25.9386 13.6055 25.4047 13.6055Z" fill="#9A9A9A"/>
<path d="M21.396 9.73849H14.3075C13.7736 9.73849 13.3408 10.1714 13.3408 10.7052C13.3408 11.2391 13.7736 11.672 14.3075 11.672H21.396C21.93 11.672 22.3628 11.2392 22.3628 10.7053C22.3628 10.1714 21.93 9.73849 21.396 9.73849Z" fill="#9A9A9A"/>
</g>
<defs>
<clipPath id="clip0_2_399">
<rect width="41.82" height="32.9999" fill="white" transform="translate(0.589844)"/>
</clipPath>
</defs>
</svg>
