<svg width="33" height="33" viewBox="0 0 33 33" fill="none" xmlns="http://www.w3.org/2000/svg">
<path d="M16.0166 32.0332H16.9834V33H16.0166V32.0332Z" fill="#9A9A9A"/>
<path d="M1.03125 33H15.0497V31H3V2H23.5V27H20.3671V31H17.9501V33H21.0507L25.2011 28.8496V0H1.03125V33ZM23.5 28.6735L21.6588 30.5V28.6735H23.5Z" fill="#9A9A9A"/>
<path d="M22 3H23V5H22V3Z" fill="#9A9A9A"/>
<path d="M22 6H23V8H22V6Z" fill="#9A9A9A"/>
<path d="M32.5 8.33569V5.5V3C32.5 2.20033 31.2997 1 30.5 1H28.5C27.7003 1 26.5 2.20033 26.5 3V28.2447L29.5 33L32.5832 28.2447L32.5 9.30249H31.0018V26.7293C30.8506 26.6756 30.6879 26.6461 30.5184 26.6461H30.3987V25.6793H28.5848V26.6461C28.4154 26.6461 28.2527 26.6756 28.1014 26.7293V6.40216H29V24.7125H30V6.40216H31.0018V8.33569H32.5ZM28.5848 27.6129H30.5184C30.7422 27.6129 30.9303 27.7659 30.9851 27.9725L29.5 30.5L28.1181 27.9725C28.173 27.7659 28.3611 27.6129 28.5848 27.6129ZM28.1014 5.43536V3.01844C28.1014 2.75186 28.3183 2.53497 28.5848 2.53497H30.5184C30.785 2.53497 31.0018 2.75186 31.0018 3.01844V5.43536H28.1014Z" fill="#9A9A9A"/>
<path d="M17.4668 17.2251C17.4668 16.4255 16.8163 15.775 16.0166 15.775C15.2169 15.775 14.5664 16.4255 14.5664 17.2251C14.5664 18.0247 15.2169 18.6753 16.0166 18.6753C16.8162 18.6753 17.4668 18.0247 17.4668 17.2251Z" fill="#9A9A9A"/>
<path d="M20.3672 9.00744C20.3672 6.60856 18.4155 4.65692 16.0166 4.65692C13.6177 4.65692 11.666 6.60856 11.666 9.00744V9.49084H14.5664V9.00744C14.5664 8.20784 15.217 7.55731 16.0166 7.55731C16.8162 7.55731 17.4668 8.20784 17.4668 9.00744C17.4668 9.80705 16.8163 10.4576 16.0166 10.4576C15.2169 10.4576 14.5664 11.1082 14.5664 11.9078V13.358C14.5664 14.1576 15.217 14.8082 16.0166 14.8082C16.8162 14.8082 17.4668 14.1576 17.4668 13.358V13.1106C19.1922 12.5028 20.3672 10.8662 20.3672 9.00744Z" fill="#9A9A9A"/>
<path d="M4.89844 7H9.73242V8.52411H4.89844V7Z" fill="#9A9A9A"/>
<path d="M4.89844 14.3071H9.73247V15.7749H4.89848L4.89844 14.3071Z" fill="#9A9A9A"/>
<path d="M4.89844 12H9.73242V13.358H4.89844V12Z" fill="#9A9A9A"/>
<path d="M4.89844 9.5L9.73242 9.50001V10.941H4.89844V9.5Z" fill="#9A9A9A"/>
<path d="M12.391 25.4427H18.9169V26.4095H12.391V25.4427Z" fill="#9A9A9A"/>
<path d="M4.89844 27.8597H18.9169V28.8265H4.89844V27.8597Z" fill="#9A9A9A"/>
<path d="M4.89844 25.4427H11.4243V26.4095H4.89844V25.4427Z" fill="#9A9A9A"/>
<path d="M4.89844 23.0258H18.9169V23.9926H4.89844V23.0258Z" fill="#9A9A9A"/>
<path d="M12.3911 20.6088H18.9169V21.5756H12.3911V20.6088Z" fill="#9A9A9A"/>
<path d="M4.89844 20.6088H11.4243V21.5756H4.89844V20.6088Z" fill="#9A9A9A"/>
</svg>
