<svg width="32" height="32" viewBox="0 0 32 32" fill="none" xmlns="http://www.w3.org/2000/svg">
<path d="M3 3.73145V31.4508C3 31.7453 3.23868 31.984 3.53312 31.984H23.7896C24.0839 31.984 24.3225 31.7453 24.3225 31.4508V9.06225C24.3225 9.0504 24.3168 9.0403 24.3157 9.02866C24.3131 8.98189 24.3039 8.93578 24.2885 8.89164C24.2826 8.87452 24.2784 8.85805 24.2709 8.84136C24.245 8.7834 24.209 8.73048 24.1642 8.68525L18.8336 3.35466C18.7884 3.30965 18.7353 3.27364 18.6769 3.24795C18.6608 3.24114 18.6446 3.23544 18.6279 3.23039C18.5833 3.21502 18.537 3.20579 18.4898 3.20272C18.4808 3.20426 18.4703 3.19855 18.4591 3.19855H3.53312C3.23868 3.19855 3 3.437 3 3.73145ZM22 8.5L18.992 8.52913L19 5.5L22 8.5ZM4.5 4.26458H17.5V9.06225C17.5 9.35648 18.2058 10 18.5 10H23V30.5H4.5V17.5912V4.26458Z" fill="white"/>
<path d="M25 27.7194V29.9543H26.9881C27.2826 29.9543 27.5212 29.7158 27.5212 29.4214V0.533124C27.5212 0.238676 27.2826 0 26.9881 0H6.73161C6.43716 0 6.19849 0.238676 6.19849 0.533124V2.13228H7.26473V1.5H26V27.7194H25Z" fill="white"/>
<path d="M7 11H20V13H7V11Z" fill="white"/>
<path d="M7.26465 7.46289H11.5292V8.52914H7.26465V7.46289Z" fill="white"/>
<path d="M7 14H16V16H7V14Z" fill="white"/>
<path d="M17 14H20V16H17V14Z" fill="white"/>
<path d="M7 17H19.7934V18.0662H7V17Z" fill="white"/>
<path d="M7 22H20V24H7V22Z" fill="white"/>
<path d="M12 19H20V21H12V19Z" fill="white"/>
<path d="M7 19H11V21H7V19Z" fill="white"/>
<path d="M7 26H9V28H7V26Z" fill="white"/>
<path d="M10 26H20V28H10V26Z" fill="white"/>
</svg>
