<svg width="34" height="34" viewBox="0 0 34 34" fill="none" xmlns="http://www.w3.org/2000/svg">
<path d="M9.44446 4.91111H26.4445V6.375H9.44446V4.91111Z" fill="#9A9A9A"/>
<path d="M27.3889 7.55555H9.31223C9.07121 7.55214 8.83338 7.49994 8.61308 7.40211C8.39278 7.30428 8.19457 7.16285 8.03042 6.98634C7.86627 6.80983 7.73956 6.6019 7.65795 6.37509C7.57634 6.14829 7.54151 5.9073 7.55556 5.66666C7.55439 5.18779 7.73514 4.72634 8.06127 4.37567C8.38739 4.025 8.83453 3.81129 9.31223 3.77777H27.3889C27.6394 3.77777 27.8796 3.67827 28.0567 3.50115C28.2338 3.32404 28.3333 3.08381 28.3333 2.83333C28.3333 2.58285 28.2338 2.34262 28.0567 2.16551C27.8796 1.98839 27.6394 1.88889 27.3889 1.88889H9.31223C8.33339 1.92317 7.40613 2.33626 6.72601 3.04105C6.04589 3.74584 5.66607 4.68723 5.66667 5.66666C5.65754 5.82079 5.65754 5.97532 5.66667 6.12944C5.65757 6.20472 5.65757 6.28083 5.66667 6.35611V28.3333C5.66607 29.3128 6.04589 30.2542 6.72601 30.9589C7.40613 31.6637 8.33339 32.0768 9.31223 32.1111H27.3889C27.6394 32.1111 27.8796 32.0116 28.0567 31.8345C28.2338 31.6574 28.3333 31.4171 28.3333 31.1667V8.73611V8.65111V8.56611C28.3339 8.30916 28.2365 8.06166 28.0611 7.87393C27.8857 7.68621 27.6453 7.57236 27.3889 7.55555ZM26.4445 30.2222H9.31223C8.83453 30.1887 8.38739 29.975 8.06127 29.6243C7.73514 29.2737 7.55439 28.8122 7.55556 28.3333V9.01944C8.09256 9.31568 8.6992 9.46245 9.31223 9.44444H26.4445V30.2222Z" fill="#9A9A9A"/>
</svg>
